# xmcd
#
# Track frame offsets:
#	150
#	28735
#	57595
#	90715
#	119163
#	152833
#	182929
#	206430
#	214538
#	240237
#	283252
#
# Disc length: 4434 seconds
#
# Revision: 5
# Processed by: cddbd v1.5.2PL0 Copyright (c) Steve Scherf et al.
# Submitted via: audiograbber 1.83.01
#
DISCID=a311500b
DTITLE=Liza Marklund - Paradies
DYEAR=2002
DGENRE=Krimi
TTITLE0=201
TTITLE1=202
TTITLE2=203
TTITLE3=204
TTITLE4=205
TTITLE5=206
TTITLE6=207
TTITLE7=208
TTITLE8=209
TTITLE9=210
TTITLE10=211
EXTD=YEAR: 2002
EXTT0=
EXTT1=
EXTT2=
EXTT3=
EXTT4=
EXTT5=
EXTT6=
EXTT7=
EXTT8=
EXTT9=
EXTT10=
PLAYORDER=
